<svg width="96" height="96" viewBox="0 0 96 96" fill="none" xmlns="http://www.w3.org/2000/svg">
<rect width="96" height="96" rx="20" fill="#282438"/>
<path d="M45.0339 77.8667C44.6474 77.8663 44.264 77.8122 43.9008 77.7067C43.2001 77.5014 42.6057 77.1139 42.213 76.6062C41.8202 76.0985 41.6517 75.5001 41.7345 74.9067L44.3007 56.0001H24.6711C24.0656 56.0008 23.4714 55.8696 22.9521 55.6204C22.4329 55.3713 22.0082 55.0137 21.7239 54.586C21.4395 54.1583 21.3061 53.6767 21.338 53.1929C21.3699 52.7092 21.5659 52.2415 21.9049 51.8401L48.2 20.3736C48.6158 19.8812 49.2254 19.514 49.9318 19.3304C50.6383 19.1468 51.4011 19.1573 52.0992 19.3603C52.7704 19.5596 53.3434 19.9266 53.7336 20.4069C54.1237 20.8872 54.3102 21.4552 54.2655 22.0269L51.6993 41.0668H71.3289C71.9344 41.0661 72.5286 41.1974 73.0479 41.4465C73.5671 41.6956 73.9918 42.0532 74.2761 42.4809C74.5605 42.9086 74.6939 43.3902 74.662 43.874C74.6301 44.3578 74.4341 44.8254 74.0951 45.2268L47.8 76.6933C47.4943 77.0552 47.0822 77.3515 46.5999 77.5561C46.1175 77.7607 45.5798 77.8673 45.0339 77.8667Z" fill="#FFC07F" stroke="black" stroke-width="0.232725"/>
</svg>
